<svg width="24" height="29" viewBox="0 0 24 29" fill="none" xmlns="http://www.w3.org/2000/svg">
<g id="Group 6356191">
<rect id="Rectangle 1058" x="0.5" y="10.1001" width="11.8" height="18.2" stroke="white"/>
<rect id="Rectangle 1068" x="3.20007" y="14.3999" width="1.6" height="1.6" fill="#D9D9D9"/>
<rect id="Rectangle 1069" x="6.39996" y="14.3999" width="1.6" height="1.6" fill="#D9D9D9"/>
<rect id="Rectangle 1070" x="9.6001" y="14.3999" width="1.6" height="1.6" fill="#D9D9D9"/>
<rect id="Rectangle 1071" x="3.20007" y="17.5996" width="1.6" height="1.6" fill="#D9D9D9"/>
<rect id="Rectangle 1072" x="6.39996" y="17.5996" width="1.6" height="1.6" fill="#D9D9D9"/>
<rect id="Rectangle 1073" x="9.6001" y="17.5996" width="1.6" height="1.6" fill="#D9D9D9"/>
<rect id="Rectangle 1074" x="3.20007" y="20.8003" width="1.6" height="1.6" fill="#D9D9D9"/>
<rect id="Rectangle 1075" x="6.39996" y="20.8003" width="1.6" height="1.6" fill="#D9D9D9"/>
<rect id="Rectangle 1076" x="9.6001" y="20.8003" width="1.6" height="1.6" fill="#D9D9D9"/>
<rect id="Rectangle 1059" x="11.7" y="0.5" width="11.8" height="27.8" stroke="white"/>
<rect id="Rectangle 1060" x="14.3999" y="4.7998" width="1.6" height="1.6" fill="#D9D9D9"/>
<rect id="Rectangle 1061" x="19.2" y="4.7998" width="1.6" height="1.6" fill="#D9D9D9"/>
<rect id="Rectangle 1062" x="19.2" y="9.6001" width="1.6" height="1.6" fill="#D9D9D9"/>
<rect id="Rectangle 1063" x="14.3999" y="9.6001" width="1.6" height="1.6" fill="#D9D9D9"/>
<rect id="Rectangle 1064" x="14.3999" y="14.3999" width="1.6" height="1.6" fill="#D9D9D9"/>
<rect id="Rectangle 1065" x="19.2" y="14.3999" width="1.6" height="1.6" fill="#D9D9D9"/>
<rect id="Rectangle 1066" x="19.2" y="19.2002" width="1.6" height="1.6" fill="#D9D9D9"/>
<rect id="Rectangle 1067" x="14.3999" y="19.2002" width="1.6" height="1.6" fill="#D9D9D9"/>
</g>
</svg>
