<svg width="53" height="53" viewBox="0 0 53 53" fill="none" xmlns="http://www.w3.org/2000/svg">
<g opacity="0.5">
<path d="M36.3801 11.9428L41.0573 16.6178L36.3801 11.9428ZM39.3878 7.82423L26.7407 20.4714C26.0872 21.1239 25.6416 21.9553 25.4599 22.8608L24.2917 28.7084L30.1393 27.538C31.0447 27.3569 31.8751 26.9131 32.5287 26.2594L45.1759 13.6123C45.5559 13.2322 45.8574 12.781 46.0631 12.2845C46.2687 11.7879 46.3746 11.2557 46.3746 10.7183C46.3746 10.1808 46.2687 9.64858 46.0631 9.15202C45.8574 8.65546 45.5559 8.20428 45.1759 7.82423C44.7958 7.44418 44.3446 7.14271 43.8481 6.93703C43.3515 6.73135 42.8193 6.62549 42.2818 6.62549C41.7444 6.62549 41.2122 6.73135 40.7156 6.93703C40.2191 7.14271 39.7679 7.44418 39.3878 7.82423V7.82423Z" stroke="#D63248" stroke-width="3" stroke-linecap="round" stroke-linejoin="round"/>
<path d="M41.9583 33.1253V39.7503C41.9583 40.9217 41.493 42.0451 40.6647 42.8734C39.8364 43.7017 38.713 44.167 37.5417 44.167H13.25C12.0786 44.167 10.9552 43.7017 10.1269 42.8734C9.29865 42.0451 8.83333 40.9217 8.83333 39.7503V15.4587C8.83333 14.2873 9.29865 13.1639 10.1269 12.3356C10.9552 11.5073 12.0786 11.042 13.25 11.042H19.875" stroke="#9F3443" stroke-width="5" stroke-linecap="round" stroke-linejoin="round"/>
</g>
</svg>
